<svg width="65" height="28" viewBox="0 0 65 28" fill="none" xmlns="http://www.w3.org/2000/svg">
<g clip-path="url(#clip0_1118_13502)">
<mask id="mask0_1118_13502" style="mask-type:luminance" maskUnits="userSpaceOnUse" x="0" y="0" width="65" height="28">
<path d="M64.0801 0.0712891H0.0800781V27.0713H64.0801V0.0712891Z" fill="white"/>
</mask>
<g mask="url(#mask0_1118_13502)">
<path d="M12.2144 3.53202C13.0332 2.56757 13.4396 1.32789 13.3481 0.0742188C12.0928 0.192154 10.9325 0.78326 10.1097 1.72392C9.70156 2.17406 9.38868 2.69975 9.18931 3.27027C8.98995 3.84079 8.90809 4.4447 8.94852 5.04672C9.57448 5.05804 10.1947 4.9273 10.7611 4.66462C11.3274 4.40194 11.8247 4.01439 12.2144 3.53202Z" fill="white"/>
<path d="M13.3335 5.2835C11.5296 5.1773 9.99545 6.2915 9.13419 6.2915C8.27293 6.2915 6.9527 5.33659 5.52642 5.36269C4.59877 5.3853 3.69326 5.64639 2.89982 6.12003C2.10638 6.59368 1.45262 7.2634 1.00344 8.06269C-0.934842 11.3513 0.492359 16.2293 2.37488 18.9077C3.28916 20.2325 4.39362 21.6914 5.84916 21.6392C7.22059 21.5861 7.76093 20.7635 9.43042 20.7635C11.0999 20.7635 11.5835 21.6392 13.0373 21.6122C14.5449 21.5861 15.4875 20.2865 16.4027 18.9599C17.0519 18.0204 17.5594 16.9934 17.9095 15.9107C17.0433 15.5383 16.3052 14.9268 15.7846 14.1503C15.2639 13.3737 14.9829 12.4653 14.9755 11.5349C14.9872 10.7089 15.2103 9.89915 15.6244 9.18065C16.0385 8.46216 16.6301 7.85815 17.3445 7.42459C16.888 6.78765 16.2887 6.26272 15.593 5.89048C14.8973 5.51825 14.1238 5.30871 13.3326 5.2781" fill="white"/>
<path d="M28.8341 1.58799C29.7182 1.54413 30.6018 1.68299 31.428 1.99566C32.2543 2.30832 33.0049 2.78784 33.6315 3.40336C34.258 4.01887 34.7467 4.75673 35.066 5.56943C35.3854 6.38213 35.5283 7.25164 35.4855 8.12199C35.5225 9.00044 35.3726 9.8768 35.0453 10.6949C34.7181 11.513 34.2208 12.2547 33.5854 12.8725C32.9499 13.4903 32.1903 13.9706 31.3552 14.2825C30.5202 14.5945 29.6281 14.7312 28.7363 14.6839H24.3952V21.4798H21.2583V1.58979H28.8341V1.58799ZM24.3952 12.0919H27.9966C30.7276 12.0919 32.2819 10.6447 32.2819 8.13189C32.2819 5.61909 30.7276 4.18989 28.0112 4.18989H24.3952V12.0919Z" fill="white"/>
<path d="M36.3047 17.2962C36.3047 14.7762 38.2796 13.2255 41.7804 13.0338L45.8133 12.8007V11.6901C45.8133 10.0863 44.707 9.12685 42.8592 9.12685C41.1084 9.12685 40.0158 9.94945 39.7507 11.2374H36.8926C37.0608 8.63275 39.3292 6.71484 42.9699 6.71484C46.5411 6.71484 48.8213 8.56525 48.8213 11.457V21.3939H45.9221V19.0224H45.8526C45.3863 19.8277 44.7093 20.4954 43.892 20.9558C43.0747 21.4163 42.1469 21.6527 41.2053 21.6405C38.3216 21.6405 36.3047 19.8864 36.3047 17.2962ZM45.8133 15.9939V14.8563L42.1863 15.0759C40.3797 15.1992 39.3575 15.9804 39.3575 17.2143C39.3575 18.4743 40.4217 19.2978 42.0464 19.2978C42.5155 19.3303 42.9864 19.2701 43.4314 19.1206C43.8764 18.9712 44.2865 18.7356 44.6376 18.4277C44.9886 18.1198 45.2735 17.7458 45.4755 17.3278C45.6774 16.9098 45.7922 16.4562 45.8133 15.9939Z" fill="white"/>
<path d="M51.557 26.7281V24.3161C51.8815 24.3626 52.2094 24.381 52.5371 24.371C53.9369 24.371 54.6939 23.7923 55.1557 22.301C55.1557 22.2731 55.4217 21.419 55.4217 21.401L50.1006 6.88574H53.3774L57.1031 18.6857H57.1589L60.8827 6.89204H64.0827L58.565 22.1516C57.3051 25.667 55.8487 26.7974 52.7959 26.7974C52.382 26.7959 51.9684 26.7727 51.557 26.7281Z" fill="white"/>
</g>
</g>
<defs>
<clipPath id="clip0_1118_13502">
<rect width="64" height="27" fill="white" transform="translate(0.0800781 0.0712891)"/>
</clipPath>
</defs>
</svg>
