<?xml version="1.0" encoding="utf-8"?>
<!-- Generator: Adobe Illustrator 23.0.3, SVG Export Plug-In . SVG Version: 6.00 Build 0)  -->
<svg version="1.1" id="Warstwa_1" xmlns="http://www.w3.org/2000/svg" xmlns:xlink="http://www.w3.org/1999/xlink" x="0px" y="0px"
	 viewBox="0 0 400 250" style="enable-background:new 0 0 400 250;" xml:space="preserve">
<style type="text/css">
	.st0{fill:#175799;}
	.st1{fill:#D23235;}
</style>
<path class="st0" d="M173.2,95.7c-0.1-7.1,0.2-14.2,1.1-21.3c1-8.5,2.7-16.9,6.3-24.8c1.6-3.4,3.5-6.6,6.2-9.3
	c3.8-3.8,8.3-5.8,13.6-5.6c6.7,0.2,12.8,2,17.9,6.5c1.2,1,2.1,2.3,2.7,3.7c0.9,2.2,0.4,4-1.2,5.6c-2.8,2.7-5.1,5.8-6.5,9.5
	c-3.4,9.2,2.4,19.3,12.1,20.8c5.5,0.9,11.8-1.5,15-7.7c2.2-4.2,2.6-8.6,2.1-13.2c-0.8-7.2-3.7-13.6-7.7-19.5
	c-0.1-0.1-0.1-0.2-0.2-0.2c-0.4-0.6-0.9-1.3-0.2-1.9c0.7-0.6,1.2,0.1,1.7,0.6c7.5,7.2,14.9,14.5,22.4,21.7
	c9.1,8.8,18.1,17.5,27.2,26.2c4.3,4.1,4.3,10.5,0,14.6c-8.1,7.8-16.1,15.6-24.2,23.4c-8.1,7.8-16.2,15.6-24.2,23.5
	c-0.5,0.5-1.1,1.1-1.6,1.6c-0.3,0.3-0.8,0.5-1.2,0.2c-0.5-0.3-0.5-0.9-0.2-1.4c0.3-0.5,0.6-1,0.9-1.4c3.3-5,5.9-10.3,7-16.2
	c0.9-4.6,1-9.1-0.6-13.6c-2.2-6.1-6.5-9.8-13.1-10.2c-6.2-0.4-10.7,2.6-13.8,7.8c-3.2,5.3-2.7,10.8,0.2,16.1
	c1.3,2.4,2.9,4.4,4.8,6.3c2.4,2.3,2.6,4.6,0.8,7.4c-1.6,2.5-4,4.2-6.6,5.6c-4.8,2.5-9.9,3.6-15.3,3.2c-5.4-0.4-9.7-3-13.1-7.1
	c-3.9-4.6-6.1-10.1-7.8-15.8c-2-6.7-3-13.6-3.6-20.6C173.4,105.4,173.2,100.5,173.2,95.7z"/>
<path class="st1" d="M109,94.2c0-2.7,0.9-5.1,2.9-7c7.8-7.6,15.6-15.2,23.5-22.7c6.6-6.4,13.2-12.8,19.8-19.1
	c2.2-2.2,4.5-4.3,6.7-6.5c0.5-0.5,1-1.1,1.7-0.4c0.6,0.6,0.2,1.3-0.3,1.8c-4.9,6.1-9.1,12.5-12.4,19.6c-3.8,8.1-6,16.6-6.9,25.5
	c-1.2,12.6-0.1,24.9,4.3,36.8c3.3,9.1,8.3,17.3,14.2,24.9c0.3,0.4,0.6,0.8,0.9,1.2c0.4,0.6,0.8,1.2,0.1,1.8c-0.6,0.5-1.1,0-1.6-0.4
	c-2.9-2.8-5.8-5.6-8.7-8.4c-9-8.7-18-17.4-27-26.1c-4.7-4.6-9.5-9.2-14.2-13.8C109.9,99.3,109,97,109,94.2z"/>
<path class="st0" d="M94.6,196.5c0.1,3.4,0.5,6.5,2.1,9.4c1.7,3.1,4.1,5.1,7.9,5c2.1-0.1,3.9-0.8,5.3-2.5c0.3-0.4,0.4-0.7,0-1.2
	c-1.2-1.4-1.2-3-0.4-4.6c0.8-1.5,2.2-2,3.9-1.9c1.7,0.1,3.2,1.8,3.4,3.9c0.2,2.9-1.1,5.1-3.1,7c-6.1,5.6-16.2,5.2-22-1
	c-4.1-4.3-5.4-9.6-5-15.4c0.3-4.9,2.2-9.1,5.8-12.6c5.8-5.6,15.1-5.9,20.9-0.6c2.1,1.9,3.5,4.2,3.2,7.3c-0.2,1.8-1.5,3.4-2.9,3.7
	c-1.8,0.3-3.6-0.4-4.3-2c-0.7-1.5-0.7-3,0.4-4.4c0.5-0.6,0.3-0.9,0-1.4c-2.7-3.4-8.3-3.3-11.3,0.1c-2.6,2.9-3.4,6.4-3.6,10.1
	C94.7,195.8,94.6,196.2,94.6,196.5z"/>
<path class="st0" d="M279.7,211.7c-0.6,0.5-1.1,1-1.7,1.4c-2.9,2.2-6,2.6-9.3,1.3c-3.3-1.3-4.7-4-5.1-7.3c-0.4-2.8-0.2-5.6-0.2-8.4
	c0-0.9,0-1.7,0-2.6c-0.1-1.7-0.9-2.4-2.6-2.3c-0.9,0.1-1-0.3-1.1-1c-0.1-1.1,0.4-1.9,1.2-2.5c1.8-1.4,3.8-1.9,6.1-1.7
	c1.8,0.2,3,1.6,3,3.7c0.1,3.4,0,6.7,0,10.1c0,1.5,0.1,2.9,0.5,4.3c0.4,1.6,1.2,2.8,3,3c1.9,0.3,3.6-0.2,4.7-1.9c0.6-0.9,1-2,1.1-3.1
	c0.3-2.9,0.2-5.8,0.1-8.7c-0.1-1.7-0.8-2.4-2.5-2.2c-1,0.1-1.1-0.4-1.1-1.1c0-1,0.4-1.8,1.2-2.4c1.8-1.5,4-2.1,6.3-1.7
	c1.5,0.2,2.4,1.3,2.8,2.8c0.3,1.4,0.1,2.8,0.1,4.3c0,3.8-0.1,7.6-0.1,11.4c0,2.1,0.7,3.3,3,3.2c0.4,0,0.6,0.2,0.6,0.5
	c0.3,1.1-0.1,2-1,2.7c-1.8,1.3-3.9,1.8-6.2,1.5c-1.1-0.1-1.7-0.8-2.2-1.8C280,212.7,279.9,212.2,279.7,211.7z"/>
<path class="st0" d="M136.9,212.3c-1.7,1.3-3.5,2.3-5.5,2.7c-4.2,0.9-8.7-1.2-10.3-4.7c-2.2-4.6,0-9.4,5.1-11c3-0.9,6-0.9,9.1-0.1
	c0.2,0.1,0.5,0.1,0.8,0.2c-0.1-1.5,0.2-3-0.2-4.5c-0.4-1.6-1.4-2.5-3.1-2.7c-0.8-0.1-1.5-0.1-2.3,0c-1.6,0.2-1.5,0.2-1.6,1.8
	c-0.1,1.4-0.6,2.5-1.9,3.1c-1.3,0.6-2.5,0.4-3.6-0.5c-1.1-1-1.4-2.2-1.1-3.6c0.4-1.6,1.4-2.6,2.8-3.3c1.4-0.8,3-1.3,4.7-1.4
	c2.7-0.3,5.3-0.2,7.9,0.6c2.9,0.9,4.4,2.9,4.6,5.9c0.3,3.6,0.1,7.2,0.2,10.8c0,0.8,0,1.6,0,2.4c0,1.7,0.6,2.4,2.1,2.8
	c0.5,0.1,1.2,0,1.3,0.5c0.2,0.6-0.1,1.2-0.4,1.8c-0.8,1.5-2.9,2.3-5,1.9C138.9,214.7,137.7,213.8,136.9,212.3z M136,206.5
	c0-2.9-0.3-3.4-2.2-3.9c-0.7-0.2-1.5-0.3-2.3-0.2c-2.1,0.1-3.6,1.1-4.1,2.7c-0.5,1.7-0.2,3.3,1.2,4.4c1.5,1.3,3.3,1.3,5.1,0.5
	C135.3,209.2,136.6,208.3,136,206.5z"/>
<path class="st0" d="M232.2,201.7c0-7.6,5.7-13.4,13.2-13.5c7.8,0,13.3,5.5,13.2,13.4c0,7.8-5.7,13.5-13.4,13.4
	C237.7,215.1,232.2,209.4,232.2,201.7z M239.4,201.1c0.1,2.4,0.3,5,1.8,7.2c2.3,3.6,6.8,3.5,8.9-0.3c0.7-1.3,1.1-2.8,1.2-4.3
	c0.2-3.1,0-6.2-1.7-8.9c-1.2-1.8-2.8-2.8-5-2.6c-2,0.2-3.3,1.5-4.1,3.3C239.7,197.2,239.5,199,239.4,201.1z"/>
<path class="st0" d="M218.2,200.9c0-2.2,0-4.5,0-6.7c0-1.3,0-1.3-1.3-1.3c-0.6,0-1.3-0.1-1.9-0.1c-0.6,0-0.8-0.3-0.9-0.8
	c-0.4-1.7,0.6-3,2.3-3.1c1.6-0.1,1.6-0.1,1.6-1.7c0-1.7,0.1-3.4,0.7-5.1c1.4-4.2,4.7-6.1,9.2-6c2,0,4,0.4,5.8,1.4
	c1.8,1,3.1,2.5,3,4.7c0,1.4-0.6,2.6-2,3.2c-1.3,0.6-2.6,0.4-3.6-0.6c-1.1-1-1.4-2.3-0.8-3.7c0.2-0.6,0.1-0.8-0.4-1
	c-2.5-1-4.6,0.1-5.1,2.8c-0.3,1.8-0.1,3.6-0.2,5.4c0,0.6,0.3,0.5,0.7,0.5c1.7,0,3.4,0,5,0c0.6,0,0.9,0.2,1,0.8
	c0.4,1.8-0.6,3.3-2.4,3.4c-1.1,0-2.3,0-3.4,0c-0.5,0-0.7,0.1-0.7,0.6c0,4.7,0,9.4,0,14.1c0,2.1,0.7,2.8,2.8,3.2
	c0.6,0.1,1.2,0.1,1.3,1c0.1,0.8-0.1,1.4-0.8,1.9c-0.9,0.6-2,0.7-3.1,0.8c-2.7,0.2-5.4,0.3-8-0.3c-1.5-0.3-2.1-1.2-1.8-2.4
	c0.1-0.4,0.3-0.8,0.8-0.9c1.6-0.4,2.2-1.4,2.2-3C218.2,205.6,218.2,203.3,218.2,200.9C218.2,200.9,218.2,200.9,218.2,200.9z"/>
<path class="st0" d="M203.6,201.9c-2.4,0-4.8,0-7.2,0c-0.6,0-0.8,0.2-0.7,0.8c0.3,3.6,3.1,6.4,6.6,6.9c3,0.4,5.7-0.3,7.9-2.5
	c0.3-0.3,0.5-0.2,0.8,0c0.9,0.9,0.9,1.9,0.6,3c-0.5,1.6-1.5,2.7-3,3.4c-8.5,4.4-19-0.3-19.7-10.4c-0.3-4.6,1-8.6,4.5-11.8
	c4-3.6,10.9-4.1,15.1-1.1c3.4,2.4,5,7.2,3.5,10.9c-0.2,0.6-0.6,0.9-1.3,0.9C208.3,201.8,206,201.9,203.6,201.9z M200.6,198
	c1.4,0,2.8,0,4.3,0c0.7,0,0.9-0.3,1-1c0.1-3.2-2.9-5.5-6.1-4.8c-2.7,0.6-3.7,3-4,5.2c-0.1,0.6,0.3,0.5,0.6,0.5
	C197.8,198,199.2,198,200.6,198z"/>
<path class="st0" d="M178.8,191.8c0.9-1.3,1.9-2.3,3.1-2.9c1.4-0.7,2.9-1,4.4-0.4c1.8,0.7,2.8,2.5,2.4,4.4c-0.4,1.9-1.8,3.1-3.6,3
	c-1.3-0.1-2.3-0.7-2.8-1.9c-0.3-0.8-0.6-0.6-1.1-0.2c-0.9,0.8-1.4,1.8-1.7,2.9c-0.3,1-0.4,2-0.4,3.1c0,2.7,0,5.4,0,8.2
	c0,1.8,0.6,2.6,2.4,3c0.8,0.2,1.2,0.5,1.3,1.3c0.1,0.8-0.3,1.4-1,1.8c-0.7,0.4-1.6,0.5-2.4,0.6c-2.6,0.2-5.3,0.3-7.8-0.3
	c-1.5-0.4-2.1-1.3-1.8-2.5c0.1-0.4,0.3-0.7,0.8-0.8c1.5-0.4,2.3-1.4,2.3-3c0-4.1,0.1-8.1,0-12.2c0-1.8-0.8-2.3-2.6-2
	c-0.7,0.1-0.9-0.2-1-0.7c-0.2-0.8,0-1.6,0.5-2.2c1.6-1.7,3.5-2.6,5.8-2.3C177.5,188.7,178.3,190.1,178.8,191.8z"/>
<path class="st0" d="M301.2,191.8c0.9-1.2,1.8-2.2,3.1-2.9c2.2-1.2,4.6-0.9,6,0.7c1.1,1.3,1.1,3.3,0.2,4.8c-0.9,1.3-2.4,1.8-3.9,1.3
	c-0.9-0.3-1.6-0.9-1.9-1.7c-0.3-0.7-0.6-0.6-1-0.2c-1.1,0.9-1.5,2.2-1.8,3.6c-0.2,0.9-0.2,1.8-0.2,2.6c0,2.5,0,5.1,0,7.6
	c0,2.3,0.4,2.9,2.7,3.4c0.6,0.2,0.9,0.5,1,1.1c0.1,0.7,0,1.4-0.7,1.8c-0.8,0.5-1.7,0.6-2.6,0.7c-2.6,0.2-5.3,0.3-7.8-0.3
	c-1.5-0.3-2.1-1.2-1.8-2.4c0.1-0.5,0.3-0.7,0.8-0.9c1.7-0.6,2.2-1.2,2.2-3.1c0-3.9,0-7.9,0-11.8c0-1.9-0.7-2.5-2.6-2.3
	c-0.8,0.1-0.9-0.2-1-0.8c-0.2-1.1,0.2-2,1-2.7c1.4-1.2,3-1.9,4.8-1.9c1.3,0,2.3,0.6,3,1.7C300.7,190.7,300.9,191.2,301.2,191.8z"/>
<path class="st0" d="M157.5,191.8c1.1-1.5,2.2-2.6,3.8-3.2c1.4-0.5,2.7-0.5,4,0.1c1.6,0.8,2.4,2.6,2,4.5c-0.5,1.7-1.9,2.8-3.6,2.7
	c-1.3-0.1-2.4-0.7-2.8-2c-0.2-0.5-0.4-0.5-0.8-0.2c-0.8,0.6-1.3,1.4-1.6,2.3c-0.5,1.4-0.7,2.9-0.7,4.4c0,2.7-0.2,5.3,0.1,8
	c0.2,1.7,0.7,2.3,2.3,2.6c0.8,0.2,1.3,0.4,1.3,1.3c0.1,0.9-0.2,1.5-1.1,1.9c-0.7,0.3-1.5,0.5-2.3,0.5c-2.6,0.2-5.2,0.3-7.7-0.3
	c-1.6-0.4-2.2-1.2-1.9-2.5c0.1-0.4,0.3-0.7,0.8-0.8c1.7-0.5,2.2-1.2,2.3-3c0-4.1,0-8.2,0-12.3c0-1.6-0.8-2.2-2.6-1.9
	c-0.7,0.1-0.9-0.2-1-0.7c-0.2-0.9,0-1.7,0.6-2.4c1.5-1.6,3.4-2.3,5.6-2.2c1.4,0.1,2.3,1,2.9,2.3
	C157.2,191.1,157.3,191.4,157.5,191.8z"/>
</svg>
