<svg xmlns="http://www.w3.org/2000/svg" xmlns:xlink="http://www.w3.org/1999/xlink" width="18" height="18" viewBox="0 0 18 18">
  <defs>
    <clipPath id="clip-path">
      <circle id="Mask" cx="9" cy="9" r="9" fill="#d8d8d8"/>
    </clipPath>
    <clipPath id="clip-path-2">
      <rect id="Mask-2" data-name="Mask" width="24" height="18" rx="4" fill="#012480"/>
    </clipPath>
    <clipPath id="clip-ENG">
      <rect width="18" height="18"/>
    </clipPath>
  </defs>
  <g id="ENG" clip-path="url(#clip-ENG)">
    <g id="Rectangle_Combined_Shape_Combined_Shape_Mask" data-name="Rectangle + Combined Shape + Combined Shape Mask">
      <circle id="Mask-3" data-name="Mask" cx="9" cy="9" r="9" fill="#d8d8d8"/>
      <g id="Rectangle_Combined_Shape_Combined_Shape_Mask-2" data-name="Rectangle + Combined Shape + Combined Shape Mask" clip-path="url(#clip-path)">
        <g id="Group_2" data-name="Group 2" transform="translate(-3)">
          <g id="Rectangle">
            <rect id="Mask-4" data-name="Mask" width="24" height="18" rx="4" fill="#012480"/>
            <g id="Rectangle-2" data-name="Rectangle" clip-path="url(#clip-path-2)">
              <g id="Group" transform="translate(-1.103 1.736) rotate(-50)">
                <rect id="Rectangle-3" data-name="Rectangle" width="3" height="27" transform="translate(0 1)" fill="#fff"/>
                <rect id="Rectangle-4" data-name="Rectangle" width="1" height="27" transform="translate(1 0)" fill="#d00d26"/>
              </g>
              <g id="Group-2" data-name="Group" transform="translate(22.253 -1.474) rotate(50)">
                <rect id="Rectangle-5" data-name="Rectangle" width="3" height="30" transform="translate(0 0)" fill="#fff"/>
                <rect id="Rectangle-6" data-name="Rectangle" width="1" height="29" transform="translate(1 0)" fill="#d00d26"/>
              </g>
            </g>
          </g>
          <path id="Combined_Shape" data-name="Combined Shape" d="M10,18V11H0V7H10V0h4V7H24v4H14v7Z" fill="#fff"/>
          <path id="Combined_Shape-2" data-name="Combined Shape" d="M11,18V10H0V8H11V0h2V8H24v2H13v8Z" fill="#d00d26"/>
        </g>
      </g>
    </g>
  </g>
</svg>
