<svg xmlns="http://www.w3.org/2000/svg" xmlns:xlink="http://www.w3.org/1999/xlink" width="36" height="36" viewBox="0 0 36 36">
  <defs>
    <clipPath id="clip-ICON_Przyjmuj_płatności">
      <rect width="36" height="36"/>
    </clipPath>
  </defs>
  <g id="ICON_Przyjmuj_płatności" data-name="ICON_Przyjmuj płatności" clip-path="url(#clip-ICON_Przyjmuj_płatności)">
    <rect width="36" height="36" fill="#fff"/>
    <g id="Money-Payments-Finance_Cash-Payments_cash-payment-bag-1" data-name="Money-Payments-Finance / Cash-Payments / cash-payment-bag-1" transform="translate(0 -0.138)">
      <g id="Group" transform="translate(6.938 1.156)">
        <g id="cash-payment-bag-1">
          <path id="Shape" d="M14.18.226c1.344.978,6.185,5.846,6.185,11.592,0,4.642-5.346,6.511-10.294,6.511S0,16.46,0,11.818C0,5.843,5.28.754,6.517,0" transform="translate(2.263 15.614)" fill="none" stroke="#072653" stroke-linecap="round" stroke-linejoin="round" stroke-miterlimit="10" stroke-width="2"/>
          <path id="Shape-2" data-name="Shape" d="M0,0H2.715c.407,0,.679.323.679.809v9.7c0,.486-.272.809-.679.809H0" transform="translate(0 4.526)" fill="none" stroke="#072653" stroke-linecap="round" stroke-linejoin="round" stroke-miterlimit="10" stroke-width="2"/>
          <path id="Shape-3" data-name="Shape" d="M5.506,0,3.628,2.64a2.1,2.1,0,0,1-1.56.78H0" transform="translate(3.394 2.823)" fill="none" stroke="#072653" stroke-linecap="round" stroke-linejoin="round" stroke-miterlimit="10" stroke-width="2"/>
          <path id="Shape-4" data-name="Shape" d="M0,13.025c3.08,1.667,4.928,2.815,6.779,2.815h6.27c1.569,0,1.857-.087,2.353-1.7.784-2.545,1.569-6.785,1.569-6.789,0-.848-.784-1.7-2.352-1.7l-7.584.03L4.622,1.178a.857.857,0,0,1,0-.784A.694.694,0,0,1,5.226,0H14a.7.7,0,0,1,.611.394.854.854,0,0,1,0,.783l-2.382,4.48" transform="translate(3.394)" fill="none" stroke="#072653" stroke-linecap="round" stroke-linejoin="round" stroke-miterlimit="10" stroke-width="2"/>
          <path id="Shape-5" data-name="Shape" d="M.308,8.018a3.355,3.355,0,0,0,2.8,1.32C4.829,9.338,6.223,8.292,6.223,7S4.829,4.672,3.111,4.672,0,3.626,0,2.336,1.394,0,3.111,0a3.351,3.351,0,0,1,2.8,1.32" transform="translate(9.617 19.655)" fill="none" stroke="#072653" stroke-linecap="round" stroke-linejoin="round" stroke-miterlimit="10" stroke-width="2"/>
          <path id="Shape-6" data-name="Shape" d="M0,0V1.555" transform="translate(12.728 28.993)" fill="none" stroke="#072653" stroke-linecap="round" stroke-linejoin="round" stroke-miterlimit="10" stroke-width="2"/>
          <path id="Shape-7" data-name="Shape" d="M0,0V1.555" transform="translate(12.728 18.103)" fill="none" stroke="#072653" stroke-linecap="round" stroke-linejoin="round" stroke-miterlimit="10" stroke-width="2"/>
        </g>
      </g>
    </g>
  </g>
</svg>
