<svg width="41" height="32" viewBox="0 0 41 32" fill="none" xmlns="http://www.w3.org/2000/svg">
<g clip-path="url(#clip0_1118_13573)">
<mask id="mask0_1118_13573" style="mask-type:luminance" maskUnits="userSpaceOnUse" x="0" y="0" width="41" height="32">
<path d="M40.0801 0.0712891H0.0800781V31.0713H40.0801V0.0712891Z" fill="white"/>
</mask>
<g mask="url(#mask0_1118_13573)">
<path d="M7.35147 31.0031V28.9461C7.36551 28.7718 7.34151 28.5965 7.28114 28.4324C7.22077 28.2684 7.12548 28.1193 7.00184 27.9957C6.87821 27.8721 6.72919 27.7768 6.56509 27.7164C6.401 27.656 6.22575 27.632 6.05147 27.6461C5.82374 27.6372 5.59746 27.686 5.39362 27.7879C5.18978 27.8898 5.01499 28.0416 4.88547 28.2291C4.77297 28.0406 4.61094 27.8866 4.41699 27.7838C4.22304 27.681 4.00461 27.6333 3.78547 27.6461C3.59788 27.6381 3.41134 27.678 3.2434 27.7619C3.07547 27.8459 2.93165 27.9712 2.82547 28.1261V27.7131H2.10547V31.0051H2.82547V29.1881C2.82547 28.6051 3.13447 28.3311 3.61447 28.3311C4.09447 28.3311 4.33447 28.6401 4.33447 29.1881V31.0051H5.05447V29.1881C5.03999 29.0779 5.04988 28.9659 5.08343 28.86C5.11697 28.7541 5.17336 28.6569 5.24861 28.5751C5.32386 28.4934 5.41614 28.4292 5.51892 28.387C5.62171 28.3448 5.7325 28.3257 5.84347 28.3311C6.32347 28.3311 6.56347 28.6401 6.56347 29.1881V31.0051L7.35147 31.0031ZM18.0155 27.7131H16.8515V26.7131H16.1315V27.7071H15.4795V28.3591H16.1315V29.8681C16.1315 30.6231 16.4405 31.0681 17.2635 31.0681C17.5759 31.0619 17.8821 30.9795 18.1555 30.8281L17.9495 30.2111C17.7647 30.3268 17.5504 30.3866 17.3325 30.3831C16.9895 30.3831 16.8525 30.1771 16.8525 29.8341V28.3631H18.0185V27.7131H18.0155ZM24.1155 27.6441C23.9428 27.6402 23.7722 27.6828 23.6215 27.7672C23.4708 27.8516 23.3454 27.9748 23.2585 28.1241V27.7131H22.5385V31.0051H23.2585V29.1531C23.2585 28.6041 23.4985 28.2961 23.9445 28.2961C24.0953 28.3022 24.2449 28.3253 24.3905 28.3651L24.5965 27.6791C24.4381 27.6508 24.2772 27.6394 24.1165 27.6451L24.1155 27.6441ZM14.8905 27.9871C14.4891 27.7417 14.0234 27.6222 13.5535 27.6441C12.7305 27.6441 12.1815 28.0551 12.1815 28.7071C12.1815 29.2561 12.5935 29.5641 13.3135 29.6671L13.6565 29.7011C14.0335 29.7701 14.2395 29.8731 14.2395 30.0441C14.2395 30.2841 13.9655 30.4551 13.4845 30.4551C13.0911 30.4578 12.7066 30.3379 12.3845 30.1121L12.0415 30.6611C12.4566 30.9397 12.9476 31.0833 13.4475 31.0721C14.4075 31.0721 14.9565 30.6261 14.9565 30.0091C14.9565 29.4261 14.5105 29.1171 13.8245 29.0151L13.4815 28.9811C13.1725 28.9471 12.9325 28.8811 12.9325 28.6721C12.9325 28.4321 13.1725 28.2951 13.5495 28.2951C13.9083 28.3106 14.2594 28.4041 14.5785 28.5691L14.8875 27.9861L14.8905 27.9871ZM34.0255 27.6441C33.8528 27.6402 33.6822 27.6828 33.5315 27.7672C33.3808 27.8516 33.2554 27.9748 33.1685 28.1241V27.7131H32.4515V31.0051H33.1715V29.1531C33.1715 28.6041 33.4115 28.2961 33.8575 28.2961C34.0083 28.3022 34.1579 28.3253 34.3035 28.3651L34.5095 27.6791C34.3511 27.6508 34.1902 27.6394 34.0295 27.6451L34.0255 27.6441ZM24.8355 29.3591C24.8255 29.5899 24.8641 29.8202 24.949 30.0351C25.0338 30.2499 25.1629 30.4446 25.3278 30.6063C25.4928 30.7681 25.6899 30.8933 25.9064 30.9739C26.1229 31.0545 26.3539 31.0886 26.5845 31.0741C27.0064 31.0972 27.4219 30.9628 27.7505 30.6971L27.4075 30.1141C27.1648 30.3107 26.8628 30.4196 26.5505 30.4231C26.413 30.4266 26.2763 30.401 26.1495 30.3479C26.0226 30.2948 25.9085 30.2154 25.8146 30.115C25.7206 30.0145 25.6491 29.8953 25.6046 29.7652C25.5601 29.6351 25.5437 29.497 25.5565 29.3601C25.5496 29.2245 25.5701 29.0888 25.6168 28.9613C25.6634 28.8338 25.7352 28.7169 25.828 28.6177C25.9207 28.5185 26.0325 28.439 26.1566 28.384C26.2808 28.3289 26.4147 28.2993 26.5505 28.2971C26.8628 28.3005 27.1648 28.4094 27.4075 28.6061L27.7505 28.0231C27.422 27.7573 27.0064 27.6229 26.5845 27.6461C26.3539 27.6315 26.1229 27.6657 25.9064 27.7463C25.6899 27.8269 25.4928 27.9521 25.3278 28.1138C25.1629 28.2756 25.0338 28.4702 24.949 28.6851C24.8641 28.9 24.8255 29.1303 24.8355 29.3611V29.3591ZM31.4885 29.3591V27.7131H30.7685V28.1241C30.6476 27.9679 30.4912 27.8428 30.3122 27.7593C30.1332 27.6758 29.9368 27.6363 29.7395 27.6441C29.2972 27.6626 28.8791 27.8513 28.5727 28.1708C28.2663 28.4903 28.0952 28.9159 28.0952 29.3586C28.0952 29.8013 28.2663 30.2268 28.5727 30.5463C28.8791 30.8658 29.2972 31.0546 29.7395 31.0731C29.9378 31.0886 30.1368 31.0525 30.3171 30.9684C30.4974 30.8843 30.6529 30.755 30.7685 30.5931V31.0041H31.4885V29.3591ZM28.8475 29.3591C28.8328 29.2197 28.8476 29.0788 28.8909 28.9455C28.9342 28.8122 29.005 28.6895 29.0988 28.5853C29.1925 28.4811 29.3071 28.3978 29.4352 28.3408C29.5632 28.2838 29.7018 28.2543 29.842 28.2543C29.9821 28.2543 30.1207 28.2838 30.2488 28.3408C30.3768 28.3978 30.4914 28.4811 30.5852 28.5853C30.679 28.6895 30.7498 28.8122 30.7931 28.9455C30.8364 29.0788 30.8511 29.2197 30.8365 29.3591C30.8511 29.4985 30.8364 29.6394 30.7931 29.7727C30.7498 29.906 30.679 30.0287 30.5852 30.1329C30.4914 30.237 30.3768 30.3203 30.2488 30.3773C30.1207 30.4343 29.9821 30.4638 29.842 30.4638C29.7018 30.4638 29.5632 30.4343 29.4352 30.3773C29.3071 30.3203 29.1925 30.237 29.0988 30.1329C29.005 30.0287 28.9342 29.906 28.8909 29.7727C28.8476 29.6394 28.8328 29.4985 28.8475 29.3591ZM20.2405 27.6441C19.7924 27.6584 19.3677 27.8476 19.0574 28.1712C18.7471 28.4947 18.5759 28.9269 18.5803 29.3752C18.5848 29.8235 18.7646 30.2522 19.0812 30.5696C19.3979 30.8869 19.8262 31.0676 20.2745 31.0731C20.7582 31.0829 21.2305 30.9253 21.6115 30.6271L21.2685 30.1131C20.9931 30.3266 20.6568 30.4467 20.3085 30.4561C20.0733 30.4761 19.8394 30.4056 19.6544 30.259C19.4695 30.1124 19.3475 29.9006 19.3135 29.6671H21.7515V29.3931C21.7854 29.1759 21.7717 28.954 21.7113 28.7427C21.6509 28.5314 21.5453 28.3358 21.4017 28.1694C21.2582 28.003 21.0801 27.8698 20.8799 27.7791C20.6798 27.6884 20.4622 27.6423 20.2425 27.6441H20.2405ZM20.2405 28.2611C20.3465 28.258 20.4521 28.2761 20.5511 28.3142C20.6501 28.3524 20.7406 28.4098 20.8172 28.4833C20.8938 28.5567 20.955 28.6446 20.9973 28.7419C21.0395 28.8392 21.0621 28.944 21.0635 29.0501H19.3515C19.3715 28.8296 19.475 28.6251 19.6408 28.4785C19.8066 28.3318 20.0222 28.254 20.2435 28.2611H20.2405ZM38.1065 29.3611V26.4131H37.3865V28.1281C37.2656 27.9718 37.1092 27.8468 36.9302 27.7633C36.7512 27.6798 36.5548 27.6403 36.3575 27.6481C35.9152 27.6666 35.4971 27.8553 35.1907 28.1748C34.8843 28.4943 34.7132 28.9199 34.7132 29.3626C34.7132 29.8053 34.8843 30.2308 35.1907 30.5503C35.4971 30.8698 35.9152 31.0586 36.3575 31.0771C36.5558 31.0926 36.7548 31.0565 36.9351 30.9724C37.1154 30.8883 37.2709 30.759 37.3865 30.5971V31.0081H38.1065V29.3611ZM35.4665 29.3611C35.4518 29.2217 35.4666 29.0808 35.5099 28.9475C35.5532 28.8142 35.624 28.6915 35.7178 28.5873C35.8115 28.4831 35.9261 28.3998 36.0542 28.3428C36.1822 28.2858 36.3208 28.2563 36.461 28.2563C36.6011 28.2563 36.7397 28.2858 36.8678 28.3428C36.9958 28.3998 37.1104 28.4831 37.2042 28.5873C37.298 28.6915 37.3688 28.8142 37.4121 28.9475C37.4554 29.0808 37.4701 29.2217 37.4555 29.3611C37.4701 29.5005 37.4554 29.6414 37.4121 29.7747C37.3688 29.908 37.298 30.0307 37.2042 30.1349C37.1104 30.239 36.9958 30.3223 36.8678 30.3793C36.7397 30.4363 36.6011 30.4658 36.461 30.4658C36.3208 30.4658 36.1822 30.4363 36.0542 30.3793C35.9261 30.3223 35.8115 30.239 35.7178 30.1349C35.624 30.0307 35.5532 29.908 35.5099 29.7747C35.4666 29.6414 35.4518 29.5005 35.4665 29.3611ZM11.3935 29.3611V27.7131H10.6735V28.1241C10.5526 27.9679 10.3962 27.8428 10.2172 27.7593C10.0382 27.6758 9.84183 27.6363 9.64447 27.6441C9.20216 27.6626 8.78412 27.8513 8.47771 28.1708C8.17129 28.4903 8.0002 28.9159 8.0002 29.3586C8.0002 29.8013 8.17129 30.2268 8.47771 30.5463C8.78412 30.8658 9.20216 31.0546 9.64447 31.0731C9.84281 31.0886 10.0418 31.0525 10.2221 30.9684C10.4024 30.8843 10.5579 30.755 10.6735 30.5931V31.0041H11.3935V29.3611ZM8.71847 29.3611C8.70379 29.2217 8.71857 29.0808 8.76186 28.9475C8.80515 28.8142 8.87598 28.6915 8.96975 28.5873C9.06353 28.4831 9.17815 28.3998 9.30618 28.3428C9.43422 28.2858 9.57281 28.2563 9.71297 28.2563C9.85313 28.2563 9.99172 28.2858 10.1198 28.3428C10.2478 28.3998 10.3624 28.4831 10.4562 28.5873C10.55 28.6915 10.6208 28.8142 10.6641 28.9475C10.7074 29.0808 10.7221 29.2217 10.7075 29.3611C10.7221 29.5005 10.7074 29.6414 10.6641 29.7747C10.6208 29.908 10.55 30.0307 10.4562 30.1349C10.3624 30.239 10.2478 30.3223 10.1198 30.3793C9.99172 30.4363 9.85313 30.4658 9.71297 30.4658C9.57281 30.4658 9.43422 30.4363 9.30618 30.3793C9.17815 30.3223 9.06353 30.239 8.96975 30.1349C8.87598 30.0307 8.80515 29.908 8.76186 29.7747C8.71857 29.6414 8.70379 29.5005 8.71847 29.3611Z" fill="white"/>
<path opacity="0.8" d="M24.7702 12.417C24.7765 14.2849 24.3563 16.1295 23.5418 17.8105C22.7274 19.4914 21.54 20.9643 20.0702 22.117H20.0362C18.5719 20.9586 17.3887 19.4838 16.5753 17.8032C15.7619 16.1226 15.3394 14.2796 15.3394 12.4125C15.3394 10.5454 15.7619 8.70246 16.5753 7.02183C17.3887 5.34119 18.5719 3.86642 20.0362 2.70801H20.0702C21.5354 3.86687 22.7193 5.34229 23.5332 7.02371C24.3472 8.70512 24.7701 10.5489 24.7702 12.417Z" fill="white"/>
<path d="M20.0382 22.1203C18.4907 23.334 16.6756 24.1602 14.744 24.5301C12.8125 24.9 10.8205 24.8029 8.93413 24.2468C7.04773 23.6908 5.32154 22.692 3.89944 21.3336C2.47733 19.9751 1.40049 18.2965 0.758665 16.4376C0.11684 14.5786 -0.0713825 12.5932 0.209686 10.6467C0.490754 8.70026 1.23297 6.84917 2.37448 5.24773C3.51599 3.64628 5.02373 2.34086 6.77204 1.44026C8.52034 0.539658 10.4586 0.0699615 12.4252 0.0703145C15.1873 0.068756 17.8692 0.998891 20.0372 2.71031C18.5729 3.86873 17.3897 5.3435 16.5763 7.02413C15.7629 8.70477 15.3404 10.5477 15.3404 12.4148C15.3404 14.2819 15.7629 16.1249 16.5763 17.8055C17.3897 19.4861 18.5729 20.9609 20.0372 22.1193L20.0382 22.1203Z" fill="white"/>
<path opacity="0.55" d="M40.0313 12.4168C40.033 14.7322 39.3829 17.0013 38.1553 18.9645C36.9277 20.9277 35.1722 22.5056 33.0897 23.5177C31.0072 24.5298 28.6818 24.9352 26.3797 24.6874C24.0776 24.4396 21.8917 23.5488 20.0723 22.1168C21.5371 20.9587 22.7207 19.484 23.5345 17.8033C24.3482 16.1227 24.771 14.2796 24.771 12.4123C24.771 10.545 24.3482 8.70187 23.5345 7.02119C22.7207 5.34051 21.5371 3.86585 20.0723 2.70777C21.8922 1.27589 24.0784 0.385311 26.3809 0.137953C28.6833 -0.109405 31.0088 0.296453 33.0914 1.30908C35.1739 2.3217 36.9293 3.90018 38.1566 5.86386C39.3839 7.82755 40.0336 10.0971 40.0313 12.4128V12.4168Z" fill="white"/>
</g>
</g>
<defs>
<clipPath id="clip0_1118_13573">
<rect width="40" height="31" fill="white" transform="translate(0.0800781 0.0712891)"/>
</clipPath>
</defs>
</svg>
