<svg width="47" height="25" viewBox="0 0 47 25" fill="none" xmlns="http://www.w3.org/2000/svg">
<g clip-path="url(#clip0_1118_13512)">
<mask id="mask0_1118_13512" style="mask-type:luminance" maskUnits="userSpaceOnUse" x="0" y="0" width="47" height="25">
<path d="M46.08 0.571289H0V24.5713H46.08V0.571289Z" fill="white"/>
</mask>
<g mask="url(#mask0_1118_13512)">
<path d="M21.2968 23.5644H17.3857V1.65527H21.2968V23.5644Z" fill="white"/>
<path d="M28.5521 23.5593H24.6411V9.05176H28.5521V23.5593Z" fill="white"/>
<path d="M46.08 23.5643L40.2028 15.8843L45.6086 9.05201H40.991L35.807 15.676V1.65039H31.896V23.5643H35.807V16.1147L40.991 23.5653L46.08 23.5643Z" fill="white"/>
<path d="M7.42078 19.8185C6.72662 19.8185 6.04802 19.6126 5.47084 19.227C4.89366 18.8413 4.44385 18.2932 4.1782 17.6518C3.91256 17.0105 3.84303 16.3048 3.97846 15.624C4.11388 14.9432 4.44814 14.3178 4.93898 13.827C5.42983 13.3361 6.05523 13.0018 6.73605 12.8664C7.41688 12.731 8.1226 12.8005 8.76393 13.0661C9.40525 13.3318 9.95339 13.7816 10.339 14.3588C10.7247 14.936 10.9305 15.6146 10.9305 16.3087C10.9305 17.2396 10.5608 18.1323 9.90258 18.7905C9.24437 19.4487 8.35163 19.8185 7.42078 19.8185ZM7.42078 8.88697C6.19583 8.8857 4.98977 9.18885 3.91102 9.76919V1.65527H0V16.3068C0 17.7745 0.435217 19.2092 1.25063 20.4296C2.06603 21.6499 3.225 22.6011 4.58098 23.1627C5.93695 23.7244 7.42902 23.8713 8.86852 23.585C10.308 23.2987 11.6303 22.5919 12.6681 21.5541C13.7059 20.5163 14.4127 19.194 14.699 17.7545C14.9853 16.315 14.8384 14.823 14.2767 13.467C13.7151 12.111 12.7639 10.952 11.5436 10.1366C10.3232 9.32122 8.88848 8.88601 7.42078 8.88601V8.88697Z" fill="white"/>
<path d="M14.7244 4.05803C14.7244 4.74764 14.5199 5.42175 14.1368 5.99514C13.7537 6.56852 13.2092 7.01543 12.572 7.27934C11.9349 7.54324 11.2338 7.61227 10.5575 7.47773C9.88111 7.3432 9.25986 7.01113 8.77224 6.52351C8.28461 6.03588 7.95251 5.4146 7.81798 4.73824C7.68344 4.06188 7.75248 3.36082 8.01638 2.7237C8.28028 2.08659 8.72719 1.54205 9.30058 1.15893C9.87396 0.7758 10.5481 0.571289 11.2377 0.571289C11.6956 0.571289 12.149 0.661495 12.572 0.836719C12.9951 1.01194 13.3794 1.26875 13.7032 1.59252C14.027 1.91629 14.2838 2.30067 14.459 2.7237C14.6342 3.14673 14.7244 3.60014 14.7244 4.05803Z" fill="white"/>
<mask id="mask1_1118_13512" style="mask-type:luminance" maskUnits="userSpaceOnUse" x="7" y="0" width="8" height="8">
<path d="M14.7244 4.05803C14.7244 4.74764 14.5199 5.42175 14.1368 5.99514C13.7537 6.56852 13.2092 7.01543 12.572 7.27934C11.9349 7.54324 11.2338 7.61227 10.5575 7.47773C9.88111 7.3432 9.25986 7.01113 8.77224 6.52351C8.28461 6.03588 7.95251 5.4146 7.81798 4.73824C7.68344 4.06188 7.75248 3.36082 8.01638 2.7237C8.28028 2.08659 8.72719 1.54205 9.30058 1.15893C9.87396 0.7758 10.5481 0.571289 11.2377 0.571289C11.6956 0.571289 12.149 0.661495 12.572 0.836719C12.9951 1.01194 13.3794 1.26875 13.7032 1.59252C14.027 1.91629 14.2838 2.30067 14.459 2.7237C14.6342 3.14673 14.7244 3.60014 14.7244 4.05803Z" fill="white"/>
</mask>
<g mask="url(#mask1_1118_13512)">
<path d="M14.7244 0.571289H7.75098V7.54473H14.7244V0.571289Z" fill="white"/>
</g>
</g>
</g>
<defs>
<clipPath id="clip0_1118_13512">
<rect width="46.08" height="24" fill="white" transform="translate(0 0.571289)"/>
</clipPath>
</defs>
</svg>
