<svg width="66" height="21" viewBox="0 0 66 21" fill="none" xmlns="http://www.w3.org/2000/svg">
<g clip-path="url(#clip0_1118_13491)">
<mask id="mask0_1118_13491" style="mask-type:luminance" maskUnits="userSpaceOnUse" x="0" y="0" width="66" height="21">
<path d="M65.0801 0.571289H0.0800781V20.5713H65.0801V0.571289Z" fill="white"/>
</mask>
<g mask="url(#mask0_1118_13491)">
<path d="M22.979 20.2142L26.2689 0.907227H31.532L28.24 20.2142H22.979Z" fill="white"/>
<path d="M47.3262 1.38264C45.8142 0.835294 44.2172 0.560666 42.6093 0.571603C37.4093 0.571603 33.7462 3.19061 33.7152 6.94361C33.6862 9.71761 36.3302 11.2656 38.3262 12.1896C40.3742 13.1356 41.0632 13.7396 41.0532 14.5846C41.0402 15.8786 39.4172 16.4696 37.9042 16.4696C36.197 16.5199 34.5015 16.1731 32.9512 15.4566L32.2732 15.1496L31.5342 19.4716C33.4105 20.164 35.3963 20.5128 37.3962 20.5016C42.9282 20.5016 46.5192 17.9126 46.5602 13.9016C46.5802 11.7016 45.1782 10.0336 42.1422 8.65559C40.3022 7.76259 39.1762 7.16661 39.1882 6.26161C39.1882 5.46161 40.1411 4.60059 42.2021 4.60059C43.5523 4.5705 44.894 4.82254 46.1412 5.34059L46.6132 5.56361L47.3262 1.37959" fill="white"/>
<path d="M60.821 0.925832H56.755C56.1836 0.852094 55.6039 0.968893 55.1056 1.25817C54.6073 1.54744 54.2183 1.99301 53.999 2.52581L46.1831 20.2189H51.7091C51.7091 20.2189 52.609 17.8398 52.817 17.3188L59.557 17.3268C59.714 18.0028 60.197 20.2198 60.197 20.2198H65.0801L60.8201 0.924856M54.3311 13.3688C54.7661 12.2558 56.431 7.96886 56.431 7.96886C56.4 8.01986 56.8631 6.85084 57.1311 6.12584L57.4871 7.79082C57.4871 7.79082 58.4951 12.3998 58.7051 13.3658L54.3311 13.3688Z" fill="white"/>
<path d="M18.5652 0.921875L13.4132 14.0879L12.8642 11.4129C11.5303 7.89799 8.93043 5.00885 5.5752 3.31293L10.2862 20.1979L15.8542 20.1909L24.1392 0.920898L18.5652 0.921875Z" fill="white"/>
<path d="M8.63312 0.909676H0.147095L0.0800781 1.3097C6.68008 2.9097 11.0501 6.76968 12.8641 11.4097L11.0191 2.53767C10.8851 2.02373 10.5698 1.5756 10.1312 1.27601C9.69268 0.976417 9.16059 0.845586 8.63312 0.907662" fill="white"/>
</g>
</g>
<defs>
<clipPath id="clip0_1118_13491">
<rect width="65" height="20" fill="white" transform="translate(0.0800781 0.571289)"/>
</clipPath>
</defs>
</svg>
