<svg width="67" height="27" viewBox="0 0 67 27" fill="none" xmlns="http://www.w3.org/2000/svg">
<g clip-path="url(#clip0_1118_13546)">
<mask id="mask0_1118_13546" style="mask-type:luminance" maskUnits="userSpaceOnUse" x="0" y="0" width="67" height="27">
<path d="M66.0801 0.571289H0.0800781V26.5713H66.0801V0.571289Z" fill="white"/>
</mask>
<g mask="url(#mask0_1118_13546)">
<path d="M31.0787 4.38645V10.9565H35.1307C35.5756 10.9698 36.0184 10.8901 36.4308 10.7226C36.8432 10.555 37.2161 10.3033 37.5257 9.98347C37.9795 9.51656 38.2851 8.92582 38.4039 8.28562C38.5228 7.64542 38.4496 6.98437 38.1935 6.38569C37.9375 5.78701 37.51 5.27747 36.965 4.92118C36.42 4.5649 35.7818 4.3778 35.1307 4.38346H31.0787V4.38645ZM31.0787 13.2695V20.8905H28.6587V2.07746H35.0787C35.8446 2.0613 36.6061 2.19702 37.3192 2.47679C38.0324 2.75656 38.683 3.17484 39.2336 3.70747C39.7817 4.21567 40.219 4.83158 40.518 5.51661C40.817 6.20164 40.9714 6.94101 40.9714 7.68846C40.9714 8.4359 40.817 9.1753 40.518 9.86033C40.219 10.5454 39.7817 11.1613 39.2336 11.6695C38.6809 12.1971 38.0291 12.6101 37.316 12.8847C36.6029 13.1593 35.8426 13.2901 35.0787 13.2695H31.0787Z" fill="white"/>
<path d="M43.4158 16.9523C43.4137 17.2601 43.4852 17.5639 43.6244 17.8384C43.7636 18.1129 43.9663 18.3501 44.2158 18.5303C44.7517 18.9504 45.4161 19.1729 46.0969 19.1603C47.118 19.1587 48.0968 18.7523 48.8188 18.0303C49.1957 17.6986 49.4976 17.2905 49.7045 16.833C49.9114 16.3756 50.0186 15.8793 50.0189 15.3773C49.0981 14.7304 47.985 14.4152 46.8618 14.4833C45.9874 14.4515 45.1257 14.7003 44.4028 15.1933C44.1044 15.3804 43.8577 15.6394 43.6853 15.9465C43.5129 16.2536 43.4202 16.5991 43.4158 16.9513V16.9523ZM46.5479 7.5973C48.092 7.51074 49.6099 8.02376 50.7849 9.02931C51.3102 9.53457 51.7205 10.147 51.9882 10.8249C52.2558 11.5028 52.3743 12.2305 52.3358 12.9583V20.8953H50.0208V19.1083H49.9158C49.4976 19.7913 48.909 20.3538 48.2077 20.7405C47.5064 21.1273 46.7166 21.325 45.9158 21.3143C44.6112 21.3568 43.3382 20.907 42.3499 20.0543C41.8909 19.6684 41.5238 19.1849 41.2755 18.6391C41.0272 18.0932 40.9041 17.4989 40.9149 16.8993C40.8938 16.2872 41.0201 15.679 41.2833 15.1259C41.5464 14.5729 41.9386 14.0911 42.4268 13.7213C43.6005 12.882 45.0238 12.465 46.4648 12.5383C47.6969 12.4907 48.9205 12.7621 50.0168 13.3263V12.7743C50.0198 12.3655 49.9315 11.9613 49.7585 11.5909C49.5856 11.2206 49.3322 10.8934 49.0168 10.6333C48.3752 10.0556 47.5392 9.74127 46.6758 9.75331C46.0392 9.73836 45.4094 9.88776 44.8473 10.1871C44.2852 10.4865 43.8098 10.9257 43.4669 11.4623L41.3348 10.1213C41.9166 9.29172 42.7007 8.62454 43.6127 8.183C44.5246 7.74145 45.5343 7.54019 46.5458 7.59831L46.5479 7.5973Z" fill="white"/>
<path d="M65.6224 8.01758L57.5435 26.5716H55.0435L58.0435 20.0796L52.7285 8.01758H55.3605L59.2014 17.2686H59.2534L62.9885 8.01758H65.6224Z" fill="white"/>
<path d="M21.2979 11.631C21.3472 13.1084 21.0861 14.5797 20.5314 15.95C19.9768 17.3202 19.141 18.5589 18.0779 19.586C16.1059 21.3381 13.5397 22.2719 10.9028 22.197C8.03505 22.197 5.28473 21.0578 3.2569 19.03C1.22907 17.0021 0.0898438 14.2518 0.0898438 11.384C0.0898438 8.51624 1.22907 5.76589 3.2569 3.73806C5.28473 1.71023 8.03505 0.57101 10.9028 0.57101C13.5903 0.539915 16.1857 1.54933 18.1459 3.38803L15.0569 6.47503C13.9389 5.4099 12.4468 4.82728 10.9028 4.85302C9.89434 4.87682 8.90509 5.13378 8.01251 5.60382C7.11993 6.07385 6.34827 6.74419 5.75806 7.56228C5.16784 8.38037 4.77504 9.32401 4.61047 10.3193C4.4459 11.3145 4.51405 12.3344 4.80951 13.2989C5.10496 14.2635 5.61971 15.1465 6.31348 15.8788C7.00724 16.6112 7.86119 17.1729 8.80835 17.5201C9.75551 17.8672 10.7702 17.9904 11.7729 17.8799C12.7756 17.7694 13.739 17.4282 14.5878 16.883C15.1519 16.5102 15.6345 16.0267 16.0061 15.4619C16.3777 14.897 16.6308 14.2626 16.7499 13.597H10.9028V9.43402H21.1119C21.2364 10.1597 21.2986 10.8947 21.2979 11.631Z" fill="white"/>
</g>
</g>
<defs>
<clipPath id="clip0_1118_13546">
<rect width="66" height="26" fill="white" transform="translate(0.0800781 0.571289)"/>
</clipPath>
</defs>
</svg>
