<svg width="168" height="27" viewBox="0 0 168 27" fill="none" xmlns="http://www.w3.org/2000/svg">
<mask id="mask0_2200_2" style="mask-type:luminance" maskUnits="userSpaceOnUse" x="0" y="0" width="168" height="26">
<path d="M168 0H0V25.7354H168V0Z" fill="white"/>
</mask>
<g mask="url(#mask0_2200_2)">
<path d="M42.8545 0.259772V25.7256H43.768L43.7866 0.269945L42.8545 0.259772Z" fill="white"/>
<path d="M12.984 0.000283501C10.8902 -0.0158241 8.526 0.652684 5.92416 2.45991C5.92379 2.45991 6.70433 4.51716 5.07476 6.68569C5.07444 6.68569 5.11739 6.70783 5.11888 6.70736C6.69852 5.79768 14.2237 -1.06843 22.3825 7.14077C22.3825 7.14077 35.2635 5.97129 31.8471 17.6402C31.8471 17.6402 36.4031 19.3404 35.8514 25.7342C35.8514 25.7342 35.9051 25.737 35.9065 25.7342C36.0978 25.3252 38.7654 19.7508 34.5497 17.1742C34.5497 17.1742 36.2542 13.0626 33.0716 9.25366C31.4531 7.31562 28.4873 5.46466 23.0553 6.24143C23.0551 6.24143 19.2656 0.0486264 12.984 0.000283501ZM0.000475155 0.238663C0.000475155 0.238659 -0.000593943 0.291857 0.000475155 0.292839C0.715902 0.684172 5.06669 3.39938 0.188003 6.64235L3.21051 19.4173C3.21051 19.4173 7.44761 16.0418 10.9653 17.5861C13.21 18.5717 13.7889 21.2938 13.3591 25.5283C13.3591 25.5283 13.4233 25.5323 13.4253 25.5283C13.7478 24.7849 17.9075 17.1969 11.572 14.8989C10.3769 14.4649 8.69291 14.3293 5.67044 15.419L2.86855 7.52001C2.86855 7.52001 7.31551 1.59853 0.000475155 0.238663ZM26.4751 16.1774C24.0972 16.2948 22.6692 17.9977 22.6692 17.9977C18.9193 14.4007 15.6094 18.3444 15.6094 18.3444C18.0448 20.7455 16.8669 25.7342 16.8669 25.7342C16.8659 25.7313 16.9201 25.7378 16.922 25.7342C18.9441 22.4859 18.6981 19.2872 18.6981 19.2872C20.7215 18.68 21.9192 20.8583 21.9192 20.8583C24.4499 18.1292 26.9814 17.9542 28.3613 18.7996C31.7851 20.8985 30.6117 25.5283 30.6117 25.5283C30.6117 25.5298 30.6773 25.5304 30.6779 25.5283C33.5441 20.0697 30.9459 17.4939 29.1556 16.7084C28.1684 16.2748 27.2677 16.1384 26.4751 16.1774Z" fill="white"/>
<path fill-rule="evenodd" clip-rule="evenodd" d="M135.687 15.9265C135.687 15.7949 135.796 15.8203 135.952 15.8203H136.316C136.35 15.8201 136.384 15.8168 136.478 15.8242C136.478 15.8242 136.818 15.8744 137.105 16.1763L141.318 21.6027L144.111 21.6052L139.823 15.8766L138.995 14.8691C138.961 14.8166 138.974 14.7513 139.122 14.5957L143.282 9.92916L143.667 9.52327C143.707 9.47116 143.808 9.39709 143.583 9.39709H141.606H141.279C140.953 9.39709 140.964 9.37217 140.769 9.57759L136.954 13.8997C136.954 13.8997 136.734 14.2118 136.454 14.2118H135.977C135.951 14.211 135.908 14.2112 135.839 14.2112C135.797 14.2042 135.714 14.2112 135.696 14.104C135.69 14.0614 135.685 14.0332 135.685 13.9166V3.96322H133.092V21.6038H135.683V16.0491L135.687 15.9265ZM162.161 9.123C162.004 9.12917 160.553 9.15232 159.551 9.51984C159.304 9.58653 157.231 10.4187 156.36 12.8702C156.192 13.2705 155.679 15.193 156.109 17.1937C156.796 19.9911 157.809 20.7695 159.651 21.4731C163.482 22.5215 167.334 20.3662 167.823 17.0547C167.823 17.0547 168.52 12.5731 166.447 10.383C166.447 10.383 165.356 9.123 162.161 9.123ZM161.993 11.2639C164.742 11.2639 165.095 13.3896 165.095 13.3896C165.463 14.8395 165.261 16.5062 165.261 16.5062C165.085 18.6909 163.461 19.6028 163.025 19.6467C161.984 19.9393 160.746 19.5522 160.749 19.557C159.028 19.0699 158.843 16.644 158.843 16.644C158.681 15.4127 158.806 14.2079 159.018 13.4554C159.231 12.7107 159.592 12.3234 159.513 12.4165C160.456 11.2327 161.993 11.2639 161.993 11.2639ZM125.888 9.13817C125.888 9.13817 122.47 9.19054 121.014 11.8655C121.014 11.8655 118.299 16.4625 122.298 20.3381C122.896 20.8347 123.854 21.7208 126.908 21.6752C127.56 21.6409 128.778 21.8233 131.162 19.7706L130.383 18.6168L130.3 18.5081C130.238 18.403 129.895 18.3225 129.608 18.498L128.898 18.9997C128.5 19.301 128.008 19.4341 126.844 19.5368C125.173 19.6207 123.977 19.1444 123.212 17.5185C123.212 17.5185 122.95 17.0659 122.95 15.619C122.952 15.5563 122.939 15.4711 123.078 15.4711H130.914H131.075C131.149 15.4711 131.205 15.4734 131.223 15.4421C131.246 15.4047 131.249 15.2674 131.249 15.1463C131.249 14.5979 131.253 13.9696 131.221 13.5008C131.185 12.9423 131.038 12.3054 130.706 11.6051C130.706 11.6051 129.695 9.13817 125.888 9.13817ZM126.385 10.9694C128.944 11.1587 128.929 13.9872 128.874 13.9685H122.983C122.983 10.6524 126.385 10.9694 126.385 10.9694ZM107.817 4.37234V21.4996H110.57V15.3549V15.2715L110.632 15.2676H113.935C113.947 15.2598 114.396 15.3157 115.76 15.0288C117.092 14.7558 118.827 13.2852 119.288 12.4405C119.593 11.8806 120.234 9.8426 119.845 8.47211C119.612 7.53467 119.379 6.98152 118.947 6.42473C118.947 6.42473 117.549 4.37231 113.983 4.37231L107.817 4.37234ZM110.597 6.65857H114.108C117.052 6.65857 117.076 9.47688 117.076 9.47688C117.076 11.8059 115.589 12.5682 115.589 12.5682C114.808 13.046 114.523 13.0928 114.383 13.099C114.305 13.1024 114.226 13.1007 114.148 13.099H110.597V6.65857ZM92.6388 15.8476C92.6388 15.7161 92.7481 15.7415 92.9033 15.7415H93.2678C93.3013 15.7412 93.3355 15.7379 93.43 15.7453C93.43 15.7453 93.7701 15.7955 94.0568 16.0974L98.2692 21.5239L101.062 21.5264L96.7743 15.7977L95.947 14.7902C95.9132 14.7378 95.9257 14.6724 96.0738 14.5168L100.233 9.8503L100.619 9.4444C100.659 9.39229 100.76 9.31821 100.535 9.31821H98.5576H98.2311C97.9045 9.31821 97.9162 9.29331 97.7211 9.49872L93.9062 13.821C93.9062 13.821 93.6858 14.1331 93.4062 14.1331H92.929C92.9028 14.1322 92.8597 14.1328 92.7903 14.1328C92.7486 14.1258 92.6653 14.1327 92.6477 14.0255C92.6413 13.983 92.637 13.9547 92.6364 13.8382V3.88477H90.044V21.5253H92.6351V15.9706L92.6388 15.8476ZM79.6795 12.8792C79.6795 12.8728 79.6795 12.8652 79.6796 12.8567C79.6781 12.8291 79.6993 12.7469 79.7275 12.6908C79.7275 12.6908 80.4325 11.2663 82.6666 11.2663C82.6666 11.2663 85.029 11.2033 85.029 13.1001V21.4233H87.4972V13.3996C87.4972 13.166 87.5092 12.9575 87.4972 12.6987C87.4972 12.6987 87.4264 10.1535 84.9083 9.44989C84.3421 9.25252 83.376 9.22189 82.7086 9.28801C82.7086 9.28801 81.1956 9.3509 79.706 10.9042L79.6494 10.979C79.5926 11.0538 79.4197 11.0853 79.4197 10.8196V10.3136V10.0578C79.4115 9.88985 79.3566 9.50383 78.9404 9.50383H77.1365V21.4233H79.6776V12.9126L79.6795 12.8792ZM149.582 9.1407C149.292 9.15242 148.977 9.18102 148.637 9.2317C148.637 9.2317 147.073 9.40852 145.002 11.092C145.002 11.092 144.702 11.2446 145.024 11.5773L145.901 12.4848C145.983 12.5626 146.207 12.708 146.71 12.4001C147.013 12.2062 148.152 11.5204 149.014 11.274C149.014 11.274 150.942 10.7063 151.705 12.6339C151.705 12.6339 151.875 12.8942 151.875 14.3097C151.883 14.6129 151.876 14.6181 151.645 14.6181C151.645 14.6181 146.214 14.3242 144.749 16.9523C144.749 16.9523 143.35 18.7821 145.302 20.8031C145.302 20.8031 146.628 22.1943 149.351 21.4389C149.351 21.4389 150.747 21.1894 151.753 20.1472C151.759 20.1381 151.793 20.1026 151.801 20.0929C151.884 19.9909 152.1 19.8728 152.157 20.1018C152.167 20.1432 152.172 20.1639 152.176 20.2218C152.181 20.2811 152.186 20.2874 152.188 20.4544C152.19 20.7561 152.147 21.3301 152.936 21.3301H154.133C154.206 21.3311 154.338 21.3192 154.338 21.1697V13.3505C154.343 13.0808 154.193 12.0364 154.107 11.825C154.111 11.8337 153.663 10.6723 152.504 9.84465C152.45 9.81798 151.612 9.05874 149.582 9.1407ZM151.593 16.2548C151.658 16.2565 151.84 16.2548 151.84 16.4279V18.4235C151.84 18.4894 151.484 19.1242 150.583 19.4357C150.042 19.642 148.275 20.238 147.475 19.5684C147.475 19.5684 146.397 18.7637 147.035 17.6197C147.035 17.6197 147.289 17.0198 148.808 16.5984C148.808 16.5984 149.904 16.2548 151.593 16.2548ZM70.0279 9.13944C69.7379 9.15116 69.4236 9.18104 69.0836 9.2317C69.0836 9.2317 67.5187 9.40852 65.4477 11.092C65.4477 11.092 65.1483 11.2446 65.4695 11.5773L66.3469 12.4848C66.4295 12.5626 66.652 12.708 67.1551 12.4001C67.4577 12.2062 68.5985 11.5204 69.4603 11.274C69.4603 11.274 71.3877 10.7063 72.1509 12.6339C72.1509 12.6339 72.3209 12.8942 72.3209 14.3097C72.3292 14.6129 72.3209 14.6168 72.09 14.6168C72.09 14.6168 66.6606 14.3242 65.1949 16.9523C65.1949 16.9523 63.7945 18.7821 65.7467 20.8031C65.7467 20.8031 67.0736 22.193 69.797 21.4376C69.797 21.4376 71.1928 21.1881 72.1994 20.1459C72.2051 20.1369 72.2388 20.1015 72.2469 20.0916C72.3304 19.9896 72.546 19.8728 72.6029 20.1018C72.6132 20.1434 72.6167 20.1639 72.6211 20.2218C72.6256 20.2811 72.6317 20.2862 72.6344 20.4531C72.6362 20.7549 72.5927 21.3303 73.3819 21.3303H74.5788C74.6525 21.3311 74.7842 21.3192 74.7842 21.1697V13.3505C74.7891 13.0808 74.6376 12.0364 74.5522 11.8251C74.5558 11.8338 74.1095 10.6724 72.9505 9.84467C72.8958 9.818 72.0582 9.05747 70.0279 9.13944ZM72.0379 16.2535C72.1024 16.2552 72.2857 16.2549 72.2857 16.4279V18.4222C72.2857 18.4881 71.9304 19.1242 71.0292 19.4357C70.4877 19.642 68.72 20.238 67.9195 19.5684C67.9195 19.5684 66.8427 18.7637 67.4808 17.6197C67.4808 17.6197 67.7349 17.0185 69.2538 16.5972C69.2538 16.5972 70.3492 16.2535 72.0379 16.2535ZM50.9028 4.40267V21.4224H56.9802C56.9802 21.4224 58.9415 21.5374 60.638 20.8171C60.638 20.8171 62.278 20.1218 63.1412 18.5485C63.1412 18.5485 63.8697 17.0757 63.4158 15.2929C63.2719 14.9827 63.2092 14.4116 61.9369 13.4554C61.9076 13.4385 61.2145 12.8792 60.1336 12.9271C60.0986 12.9257 59.9045 12.936 59.8723 12.8121C59.8707 12.8121 59.8162 12.6459 60.1069 12.5568C60.725 12.3839 61.4497 11.9917 62.265 11.1337C62.265 11.1337 63.0708 10.4149 63.0708 8.79821C63.0708 8.79821 63.0633 7.61146 62.3915 6.38686C62.3915 6.38686 61.8482 5.277 59.814 4.70345C59.6791 4.66476 58.5906 4.40267 51.0583 4.40267H50.9028ZM53.7088 6.65732H57.51C59.213 6.65732 59.7617 7.74924 59.7617 7.74924C60.2107 8.5676 60.2248 9.2949 60.2248 9.2949C60.2248 10.4976 59.4482 11.087 59.4482 11.087C58.7759 11.6683 57.7775 11.9497 57.4116 11.9565C56.9917 11.9807 55.0035 11.9565 53.7999 11.9565C53.733 11.9564 53.6951 11.9613 53.6954 11.9401L53.6967 11.8933V6.67753C53.697 6.66705 53.6921 6.65865 53.7088 6.65732ZM53.6783 13.9925H57.7287C59.5426 13.9925 60.1262 15.1009 60.1262 15.1009C60.6045 15.9312 60.6196 16.6693 60.6196 16.6693C60.6196 17.8897 59.7921 18.4878 59.7921 18.4878C59.076 19.0777 58.0129 19.3618 57.623 19.3688C57.1757 19.3934 55.0588 19.3688 53.7767 19.3688C53.7054 19.3686 53.6647 19.3739 53.665 19.3523V19.3056V14.014C53.6653 14.0033 53.6606 13.9938 53.6783 13.9925Z" fill="white"/>
</g>
</svg>
